<?xml version="1.0" encoding="UTF-8"?>
<!DOCTYPE svg PUBLIC "-//W3C//DTD SVG 1.0//EN" "http://www.w3.org/TR/2001/REC-SVG-20010904/DTD/svg10.dtd">
<!-- Creator: CorelDRAW 2017 -->
<svg xmlns="http://www.w3.org/2000/svg" xml:space="preserve" width="356px" height="200px" version="1.0" style="shape-rendering:geometricPrecision; text-rendering:geometricPrecision; image-rendering:optimizeQuality; fill-rule:evenodd; clip-rule:evenodd"
viewBox="0 0 35600 20025"
 xmlns:xlink="http://www.w3.org/1999/xlink">
 <defs>
  <style type="text/css">
   <![CDATA[
    .fil12 {fill:#FEFEFE}
    .fil0 {fill:#E6E7E8}
    .fil3 {fill:#4B4B4D;fill-rule:nonzero}
    .fil23 {fill:#FEC53A;fill-rule:nonzero}
    .fil22 {fill:#F9A34A;fill-rule:nonzero}
    .fil21 {fill:#EE3B48;fill-rule:nonzero}
    .fil6 {fill:#FBD568;fill-rule:nonzero}
    .fil4 {fill:#F5C460;fill-rule:nonzero}
    .fil8 {fill:#E6695C;fill-rule:nonzero}
    .fil9 {fill:#E2E7EA;fill-rule:nonzero}
    .fil7 {fill:#D6D6DA;fill-rule:nonzero}
    .fil5 {fill:#6B7D8E;fill-rule:nonzero}
    .fil10 {fill:#485E71;fill-rule:nonzero}
    .fil11 {fill:#3F5361;fill-rule:nonzero}
    .fil24 {fill:#00AD5B;fill-rule:nonzero}
    .fil20 {fill:#385263;fill-rule:nonzero}
    .fil25 {fill:#0177B7;fill-rule:nonzero}
    .fil19 {fill:#00A859;fill-rule:nonzero}
    .fil17 {fill:#C49214;fill-rule:nonzero}
    .fil16 {fill:#DCA815;fill-rule:nonzero}
    .fil13 {fill:#E4AF18;fill-rule:nonzero}
    .fil14 {fill:#F4BF1A;fill-rule:nonzero}
    .fil18 {fill:#FCC62D;fill-rule:nonzero}
    .fil26 {fill:#FF7300;fill-rule:nonzero}
    .fil15 {fill:#FFD949;fill-rule:nonzero}
    .fil1 {fill:#373435;fill-opacity:0.031373}
    .fil2 {fill:#373435;fill-opacity:0.078431}
   ]]>
  </style>
 </defs>
 <g id="Layer_x0020_1">
  <metadata id="CorelCorpID_0Corel-Layer"/>
  <g id="_1939765412512">
   <path class="fil0" d="M0 0l35600 0 0 20025 -35600 0 0 -20025z"/>
   <path class="fil1" d="M2082 17547c68,104 112,203 155,312 32,64 49,183 199,183 44,0 107,-14 163,-45 63,-33 111,-83 136,-159l60 -202 146 -72 10 10c-20,77 -25,149 -25,206 0,170 146,234 262,234 68,0 129,-34 129,-95 0,-81 -34,-217 -78,-339 68,-68 136,-136 214,-191l12 6c34,144 53,287 53,381 0,93 -41,196 -75,264 -70,132 -194,238 -344,238 -114,0 -241,-58 -328,-163l-5 0c-82,101 -209,193 -412,193l-63 0c-10,134 -39,229 -83,314 -121,237 -480,404 -818,404 -470,0 -706,-272 -706,-633 0,-223 73,-431 185,-578l92 38c-70,134 -117,262 -117,385 0,338 275,499 592,499 294,0 658,-187 724,-404 -25,-237 -114,-348 -250,-565 41,-72 94,-144 160,-221l12 0 0 0 0 0zm5421 -1274c99,62 196,136 291,221 -53,74 -119,142 -201,202 -95,-77 -190,-143 -287,-213 66,-74 131,-146 197,-210l0 0 0 0zm51 926c-160,0 -291,105 -291,183 0,168 320,219 703,217 -48,-196 -216,-400 -412,-400zm-359 895c208,0 390,-6 529,-41 155,-39 286,-118 286,-171 0,-15 0,-31 -5,-46 -87,8 -187,8 -274,8 -282,0 -498,-64 -583,-222 -21,-44 -36,-93 -36,-149 0,-152 66,-303 182,-406 97,-85 204,-138 313,-138 197,0 354,158 464,408 60,136 101,293 101,491 0,132 -36,243 -118,326 -153,148 -435,204 -867,204l-196 0 0 0 -51 0c-107,0 -184,-19 -245,-66l-10 0c3,25 5,50 5,72 0,97 -32,221 -97,320 -192,287 -400,410 -580,410 -182,0 -405,-70 -606,-161l36 -70c65,27 155,46 279,46 325,0 752,-314 805,-619 -12,-25 -34,-58 -65,-93 -95,-113 -155,-208 -211,-307 48,-95 92,-171 133,-239l17 -2c139,282 265,445 546,445l44 0 0 0 204 0 0 0 0 0zm-1408 299c24,-130 26,-276 26,-413l0 -202c0,-377 -48,-926 -87,-1282 68,-75 163,-161 238,-219l22 6c51,450 63,972 63,1452 0,126 -5,250 -17,340 -7,114 -73,201 -214,332l-31 -14 0 0 0 0zm-1449 -596c7,177 94,318 398,318 189,0 349,-50 526,-135 32,-14 49,-33 49,-49 0,-111 -85,-258 -228,-392 -139,-126 -323,-237 -495,-311 -59,-25 -78,-52 -78,-77 0,-51 68,-158 124,-235l19 -2c197,103 417,256 580,427 148,157 240,316 240,489 0,128 -39,250 -102,361 -216,109 -446,192 -674,192 -277,0 -466,-130 -466,-436 0,-33 0,-84 12,-150l95 0 0 0 0 0zm-501 -503l172 278c63,103 122,215 122,392l0 227c0,183 -117,379 -306,573 -148,132 -279,188 -400,188 -180,0 -386,-56 -624,-159l27 -70c75,21 162,37 269,37 342,-2 692,-252 852,-557 19,-35 26,-68 26,-90 0,-36 -19,-75 -34,-110 -87,-165 -184,-315 -291,-453 56,-89 112,-174 173,-258l14 2z"/>
   <path class="fil2" d="M3065 20025l-6 0 -4 0 -21 0 -28 0 -2 0 -8 0 -15 0 -7 0 -14 0 -13 0 -4 0 -29 0 -2 0 -29 0 -20 0 -28 0 -4 0 -7 0 -36 0 -3 0 -43 0 -45 0 -20 0 -2 0 -30 0 -21 0 -23 0 -5 0 -2 0 -23 0 0 0 -3 0 -4 0 -14 0 -31 0 -7 0 -9 0 -7 0 -46 0 -15 0 -10 0 -50 0 -40 0 -1 0 -2 0 -3 0 -17 0 -39 0 -8 0 -51 0 -7 0 -10 0 -1 0 -9 0 -36 0 -6 0 0 0 -36 0 -7 0 -44 0 -33 0 -10 0 -7 0 -4 0 -13 0 -19 0 -3 0 -45 0 -6 0 -10 0 0 0 -45 0 -34 0 -9 0 -17 0 -26 0 -87 0 -19 0 -5 0 -18 0 -15 0 -19 0 -24 0 -25 0 -78 0 -54 0 -7 0 -17 0 -36 0 -112 0 -9 0 -13 0 -4 0 -12 0 -3 0 0 0 -2 0 -31 0 -14 0 -18 0 -68 0 -64 0 -23 0 -141 0 -17 0 -32 0 -33 0 -41 0 -69 0 -46 0 -17 0 -69 0 -24 0 -30 0 -32 0 -47 0 -11 0 -21 0 -70 0 -30 0 -117 0 -19 0 -2 0 -54 0 -7 0 -71 0 0 -101 0 -10 0 -307 0 -166 0 -65 0 -456 0 -24 0 -257 0 -152 0 -153 8894 -10272 -83 106 -78 110 -73 113 -67 117 -62 121 -5 11 445 -514 174 -192 192 -174 208 -156 222 -135 236 -113 248 -91 259 -67 268 -40 276 -14 275 14 73 11 4262 -4923 -83 106 -78 109 -73 114 -67 117 -62 121 -5 10 445 -513 174 -192 192 -174 207 -156 223 -135 236 -114 248 -90 259 -67 268 -41 275 -14 276 14 268 41 259 67 248 90 236 114 222 135 208 156 192 174 174 192 155 207 136 223 113 236 91 248 66 258 41 268 14 276 -14 276 -41 268 -22 89 133 58 147 69 145 72 144 76 141 79 139 82 137 86 134 88 133 92 130 95 128 98 125 101 122 103 121 107 117 109 115 112 112 115 109 118 107 120 104 123 101 125 98 127 94 130 92 133 89 135 79 127 203 -74 258 -67 268 -40 276 -14 276 14 268 40 259 67 248 91 236 113 222 135 208 156 192 174 174 192 155 207 135 223 114 236 91 248 66 259 41 268 14 275 -14 276 -41 268 -66 259 -91 248 -114 236 -135 222 -155 208 -530 612 12 -8 110 -78 106 -83 101 -88 97 -93 93 -97 -6124 7073 2547 0 119 -13 110 -38 97 -60 81 -78 -1226 1417 -244 0 -2547 0 -8 0 -124 0 -132 0 -8 0 -189 0 -24 0 -240 0 -477 0 -76 0 -173 0 -235 0 -433 0 -72 0 0 0 -391 0 -82 0 -2 0 -4 0 -1 0 0 0 -3 0 0 0 -1 0 -1 0 -1 0 -1 0 -81 0 -127 0 -56 0 -6 0 0 0 -20 0 -90 0 -221 0 -332 0 -270 0 0 0 -63 0 -3 0 -19 0 -73 0 -311 0 -73 0 -10 0 -60 0 0 0 -340 0 -77 0 -46 0 0 0 -417 0 -100 0 0 0 -1 0 -4 0 -20 0 -60 0 -1 0 0 0 -1 0 0 0 -1 0 -3 0 -3 0 0 0 -12 0 -99 0 -45 0 -477 0 -100 0 -44 0 -156 0 -14 0 -322 0 -185 0 -117 0 -132 0 -132 0 -390 0 -33 0 0 0 -41 0 -22 0 -243 0 -226 0 -66 0 0 0 -30 0 -490 0 -10 0 -247 0 -851 0 -181 0 -50 0 -140 0 -532 0 -136 0 -282 0 -3 0 -207 0 -177 0 -8 0 -124 0 -132 0 -8 0 -69 0 -104 0 -8 0 -260 0 -117 0 -11 0 -182 0 -199 0 -55 0 -173 0 -51 0 -233 0 -8 0 -124 0 -132 0 -7 0 -134 0 -23 0 -311 0 -30 0 -90 0 -1 0 -66 0 -31 0 -25 0 -106 0 -29 0 -24 0 -7 0 -7 0 -16 0 -8 0 -52 0 -46 0 -2 0 -67 0 -12 0 -9 0 -40 0 0 0 -43 0 -51 0 -54 0 -20 0 -11 0 -3 0 -27 0 -25 0 -19 0 -47 0 -10 0 -31 0 -59 0 -11 0 -7 0 -30 0 -25 0 -60 0 -6 0 -19 0 -11 0 -13 0 -7 0 -23 0 0 0 -7 0 -21 0 -13 0 -2 0 0 0 -48 0 -7 0 -10 0 -17 0 -22 0 -1 0 -10 0 -19 0 -8 0 -9 0 -2 0 -13 0 -4 0 -3 0 -10 0 -10 0 -1 0 -2 0 -7 0 -47 0 -5 0 -39 0 -19 0 -64 0 -6 0 -8 0 -27 0 -8 0 -6 0 -6 0 -23 0 -42 0 -22 0 -68 0 -10 0 -1 0 -27 0 -34 0 -60 0 -17 0 -53 0 -16 0z"/>
   <g>
    <path class="fil3" d="M17823 3926c1904,0 3627,772 4874,2019 1247,1247 2019,2971 2019,4874 0,1903 -772,3626 -2019,4874 -1247,1247 -2970,2018 -4874,2018 -1903,0 -3626,-771 -4873,-2018 -1247,-1248 -2019,-2971 -2019,-4874 0,-1903 772,-3627 2019,-4874 1247,-1247 2970,-2019 4873,-2019zm4733 2160c-1211,-1211 -2884,-1960 -4733,-1960 -1848,0 -3521,749 -4732,1960 -1211,1211 -1960,2885 -1960,4733 0,1848 749,3521 1960,4732 1211,1211 2884,1960 4732,1960 1849,0 3522,-749 4733,-1960 1211,-1211 1960,-2884 1960,-4732 0,-1848 -749,-3522 -1960,-4733z"/>
    <path class="fil4" d="M17820 15457l3 2 0 0 0 -3 2 2 2 -1 0 0 1 -1 0 0 1430 -955 0 0 0 -720c-108,74 -212,155 -309,243 -628,568 -1243,470 -1243,470 -376,10 -910,-374 -1138,-553 -58,-46 -118,-90 -179,-131l0 691 0 0 1431 956z"/>
    <path class="fil4" d="M17823 15459l0 0 0 0 0 0 -462 631 0 0 462 -631z"/>
    <path class="fil5" d="M16303 9232l890 0c82,0 162,-12 239,-37 162,-52 418,-147 612,-220 173,-66 364,-69 539,-7l937 329c630,231 694,823 694,823l0 1673c0,0 83,-559 369,-1017 70,-112 107,-240 107,-371l0 -1443c0,0 -90,-707 -784,-875 0,0 283,-602 -451,-745l-2701 0 0 0c-988,0 -1789,801 -1789,1788l0 1061c0,229 77,453 221,632 113,141 231,362 249,683l0 -1405c174,-779 868,-869 868,-869z"/>
    <path class="fil6" d="M17706 14494c0,0 615,98 1243,-470 97,-88 201,-169 309,-243 11,-7 21,-15 32,-22 278,-187 811,-704 924,-1966l0 -1673c0,0 -64,-592 -694,-823l-937 -329c-175,-62 -366,-59 -539,7 -194,73 -450,169 -612,220 -77,25 -157,37 -239,37l-890 0c0,0 -694,90 -868,869l0 1730c0,0 30,1367 935,1966 6,4 12,9 19,13 61,41 120,85 179,131 228,179 762,563 1138,553z"/>
    <path class="fil7" d="M18313 16127l-249 357 230 1449 576 -1048 -557 -758z"/>
    <path class="fil7" d="M17356 17939l231 -1455 -251 -361 -560 762 580 1054z"/>
    <path class="fil7" d="M17361 16090l-20 26 482 -654 0 -3 0 0 -462 631z"/>
    <path class="fil8" d="M18294 17933l-230 -1449 249 -357 0 0 -490 -668 0 3 -482 654 -5 7 0 0 0 0 251 361 -231 1455 0 0 467 850 471 -856 0 0z"/>
    <path class="fil8" d="M17826 18794l45 -44 -46 42 1 2z"/>
    <path class="fil8" d="M17822 18792l-46 -42 45 44 1 -2z"/>
    <path class="fil8" d="M17821 18795l2 2 3 -2 -3 -2 0 0 0 0 -2 2z"/>
    <path class="fil8" d="M17828 15456l-1 1 1 -1 0 0z"/>
    <path class="fil8" d="M17823 15456l0 3 2 -1 -2 -2z"/>
    <path class="fil9" d="M17828 15456l-1 1 0 0 -2 1 -2 1 0 0 0 0 0 0 0 0 490 668 557 758 1160 -2108 -772 -276 0 0 -1430 955z"/>
    <path class="fil9" d="M17336 16123l0 0 25 -33 462 -631 0 0 0 0 -3 -2 -1431 -956 0 0 -772 276 1159 2108 560 -762z"/>
    <path class="fil10" d="M23568 18175l-260 -1568c-70,-423 -363,-775 -766,-921l-2512 -909 667 1339 -834 12 283 541 -2275 2081 -45 44 2 3 5213 0c330,0 581,-296 527,-622z"/>
    <path class="fil10" d="M17826 18795l-3 2 0 0 5 0 -2 -2z"/>
    <path class="fil11" d="M18294 17933l-471 856 0 0 2 3 46 -42 2275 -2081 -283 -541 834 -12 -667 -1339 -1160 2108 -576 1048z"/>
    <path class="fil11" d="M17821 18795l2 -2 0 0 -1 -1 -1 2 0 1z"/>
    <path class="fil10" d="M17821 18795l0 -1 -45 -44 -2275 -2081 283 -541 -834 -13 667 -1338 -2512 909c-403,146 -696,498 -766,921l-260 1568c-54,326 197,622 527,622l5217 0 0 0 -2 -2z"/>
    <path class="fil11" d="M17826 18794l-1 -2 -2 -3 0 0 -467 -850 -580 -1054 -1159 -2108 -667 1339 834 12 -283 541 2275 2081 46 42 1 1 0 0 3 2 2 2 -2 -3z"/>
    <path class="fil12" d="M24546 7144c1491,0 2699,1208 2699,2698 0,1491 -1208,2699 -2699,2699 -1490,0 -2698,-1208 -2698,-2699 0,-1490 1208,-2698 2698,-2698z"/>
    <path class="fil3" d="M24546 7044c773,0 1473,313 1979,819 507,507 820,1207 820,1979 0,773 -313,1473 -820,1979 -506,507 -1206,820 -1979,820 -772,0 -1472,-313 -1978,-820 -507,-506 -821,-1206 -821,-1979 0,-772 314,-1472 820,-1979 507,-506 1207,-819 1979,-819zm1838 961c-470,-471 -1120,-761 -1838,-761 -717,0 -1367,290 -1838,761 -470,470 -761,1120 -761,1837 0,718 291,1368 762,1838 470,470 1120,761 1837,761 718,0 1368,-291 1838,-761 470,-470 761,-1120 761,-1838 0,-717 -291,-1367 -761,-1837z"/>
    <path class="fil12" d="M11054 7144c1490,0 2698,1208 2698,2698 0,1491 -1208,2699 -2698,2699 -1491,0 -2699,-1208 -2699,-2699 0,-1490 1208,-2698 2699,-2698z"/>
    <path class="fil3" d="M11054 7044c772,0 1472,313 1978,819 507,507 820,1207 820,1979 0,773 -313,1473 -819,1979 -507,507 -1207,820 -1979,820 -773,0 -1473,-313 -1979,-820 -507,-506 -820,-1206 -820,-1979 0,-772 313,-1472 820,-1979 506,-506 1206,-819 1979,-819zm1837 961c-470,-471 -1120,-761 -1837,-761 -718,0 -1368,290 -1838,761 -470,470 -761,1120 -761,1837 0,718 291,1368 761,1838 470,470 1120,761 1838,761 717,0 1367,-291 1837,-761 471,-470 761,-1120 761,-1838 0,-717 -290,-1367 -761,-1837z"/>
    <path class="fil12" d="M17823 1327c1491,0 2699,1209 2699,2699 0,1491 -1208,2699 -2699,2699 -1490,0 -2698,-1208 -2698,-2699 0,-1490 1208,-2699 2698,-2699z"/>
    <path class="fil3" d="M17823 1228c773,0 1473,313 1979,819 507,507 820,1207 820,1979 0,773 -313,1473 -820,1979 -506,507 -1206,820 -1979,820 -772,0 -1472,-313 -1979,-820 -506,-506 -819,-1206 -819,-1979 0,-772 313,-1472 819,-1979 507,-506 1207,-819 1979,-819zm1838 960c-470,-470 -1120,-761 -1838,-761 -717,0 -1367,291 -1837,761 -471,471 -761,1121 -761,1838 0,718 290,1368 761,1838 470,470 1120,761 1837,761 718,0 1368,-291 1838,-761 470,-470 761,-1120 761,-1838 0,-717 -291,-1367 -761,-1838z"/>
    <path class="fil13" d="M11053 11128c-972,0 -1760,-200 -1760,-406l0 474c1,206 789,406 1760,406 972,0 1760,-200 1761,-406l0 -474c0,206 -788,406 -1761,406z"/>
    <path class="fil14" d="M10851 10384c-973,0 -1760,-201 -1760,-406l0 473c0,206 788,407 1760,407 971,0 1759,-201 1760,-407l0 -473c0,205 -788,406 -1760,406z"/>
    <path class="fil13" d="M11257 9639c-972,0 -1760,-200 -1760,-406l0 474c0,205 788,406 1760,406 972,0 1759,-201 1760,-406l0 -474c0,206 -788,406 -1760,406z"/>
    <path class="fil15" d="M12611 8430c0,205 -788,397 -1760,397 -973,0 -1760,-192 -1760,-397 0,-206 787,-348 1760,-348 972,0 1760,142 1760,348z"/>
    <path class="fil14" d="M10851 8827c-973,0 -1760,-201 -1760,-406l0 473c0,206 788,407 1760,407 971,0 1759,-201 1760,-407l0 -473c0,205 -788,406 -1760,406z"/>
    <path class="fil16" d="M9361 8629l0 473c42,15 87,30 136,44l0 -473c-49,-14 -94,-29 -136,-44z"/>
    <path class="fil16" d="M12204 8673l0 473c49,-14 95,-29 136,-44l0 -473c-41,15 -87,30 -136,44z"/>
    <path class="fil16" d="M9700 8722l0 473c43,10 88,18 135,26l0 -474c-47,-8 -92,-16 -135,-25z"/>
    <path class="fil16" d="M11866 8747l0 474c47,-8 92,-16 135,-26l0 -473c-43,9 -88,17 -135,25z"/>
    <path class="fil16" d="M10038 8777l0 474c44,6 89,11 136,16l0 -474c-47,-5 -92,-10 -136,-16z"/>
    <path class="fil16" d="M11528 8793l0 474c46,-5 91,-10 135,-16l0 -474c-44,6 -89,11 -135,16z"/>
    <path class="fil16" d="M10377 8810l0 474c44,3 89,6 135,8l0 -473c-46,-2 -91,-5 -135,-9z"/>
    <path class="fil16" d="M11189 8819l0 473c46,-2 91,-5 135,-8l0 -474c-44,4 -89,7 -135,9z"/>
    <path class="fil16" d="M10851 8827c-23,0 -46,0 -68,0l0 473c22,1 45,1 68,1 22,0 45,0 67,-1l0 -473c-22,0 -45,0 -67,0z"/>
    <path class="fil17" d="M9767 9441l0 474c42,15 87,30 136,43l0 -473c-49,-14 -94,-29 -136,-44z"/>
    <path class="fil17" d="M12611 9485l0 473c49,-13 94,-28 135,-43l0 -474c-41,15 -86,30 -135,44z"/>
    <path class="fil17" d="M10106 9534l0 474c43,9 89,17 136,25l0 -473c-47,-9 -93,-17 -136,-26z"/>
    <path class="fil17" d="M12272 9560l0 474c47,-9 92,-17 135,-26l0 -474c-43,9 -88,17 -135,26z"/>
    <path class="fil17" d="M10444 9590l0 474c45,5 90,10 136,15l0 -474c-46,-4 -91,-10 -136,-15z"/>
    <path class="fil17" d="M11934 9605l0 474c46,-5 91,-10 135,-15l0 -474c-44,5 -89,11 -135,15z"/>
    <path class="fil17" d="M10783 9623l0 474c44,3 89,6 135,8l0 -474c-46,-2 -91,-5 -135,-8z"/>
    <path class="fil17" d="M11595 9631l0 474c46,-2 91,-5 135,-8l0 -474c-44,3 -89,6 -135,8z"/>
    <path class="fil17" d="M11257 9639c-23,0 -46,0 -68,0l0 474c22,0 45,0 68,0 22,0 45,0 67,0l0 -474c-22,0 -45,0 -67,0z"/>
    <path class="fil16" d="M9361 10186l0 473c42,15 87,30 136,44l0 -474c-49,-13 -94,-28 -136,-43z"/>
    <path class="fil16" d="M12204 10229l0 474c49,-14 95,-29 136,-44l0 -473c-41,15 -87,30 -136,43z"/>
    <path class="fil16" d="M9700 10279l0 473c43,9 88,18 135,26l0 -474c-47,-8 -92,-16 -135,-25z"/>
    <path class="fil16" d="M11866 10304l0 474c47,-8 92,-17 135,-26l0 -473c-43,9 -88,17 -135,25z"/>
    <path class="fil16" d="M10038 10335l0 473c44,6 89,11 136,16l0 -474c-47,-5 -92,-10 -136,-15z"/>
    <path class="fil16" d="M11528 10350l0 474c46,-5 91,-10 135,-16l0 -473c-44,5 -89,10 -135,15z"/>
    <path class="fil16" d="M10377 10368l0 473c44,4 89,6 135,8l0 -473c-46,-3 -91,-5 -135,-8z"/>
    <path class="fil16" d="M11189 10376l0 473c46,-2 91,-4 135,-8l0 -473c-44,3 -89,5 -135,8z"/>
    <path class="fil16" d="M10851 10384c-23,0 -46,0 -68,-1l0 474c22,0 45,1 68,1 22,0 45,-1 67,-1l0 -474c-22,1 -45,1 -67,1z"/>
    <path class="fil17" d="M9564 10930l0 474c42,15 87,30 136,44l0 -474c-49,-14 -94,-29 -136,-44z"/>
    <path class="fil17" d="M12407 10974l0 474c50,-14 95,-29 136,-44l0 -474c-41,16 -86,30 -136,44z"/>
    <path class="fil17" d="M9903 11023l0 474c43,9 88,18 135,25l0 -473c-47,-8 -92,-17 -135,-26z"/>
    <path class="fil17" d="M12069 11049l0 473c47,-7 92,-16 135,-25l0 -474c-43,9 -88,18 -135,26z"/>
    <path class="fil17" d="M10242 11079l0 474c43,5 88,11 135,15l0 -473c-47,-5 -92,-11 -135,-16z"/>
    <path class="fil17" d="M11730 11095l0 473c47,-4 92,-10 136,-15l0 -474c-44,6 -89,11 -136,16z"/>
    <path class="fil17" d="M10580 11112l0 474c44,3 89,6 135,8l0 -474c-46,-2 -91,-5 -135,-8z"/>
    <path class="fil17" d="M11392 11120l0 474c46,-2 91,-5 136,-8l0 -474c-45,3 -90,6 -136,8z"/>
    <path class="fil17" d="M11053 11128c-22,0 -45,0 -67,0l0 474c22,0 45,0 67,0 23,0 46,0 68,0l0 -474c-22,0 -45,0 -68,0z"/>
    <path class="fil18" d="M12557 10544c-192,170 -883,314 -1706,314 -644,0 -1207,-88 -1514,-208 -28,26 -44,53 -44,81 0,206 788,397 1760,397 973,0 1761,-191 1761,-397 0,-71 -94,-134 -257,-187z"/>
    <path class="fil15" d="M11257 10113c-895,0 -1633,-170 -1745,-358 -262,60 -421,139 -421,232 0,205 787,397 1760,397 972,0 1760,-192 1760,-397 0,-9 -3,-18 -6,-27 -322,91 -807,153 -1348,153z"/>
    <path class="fil18" d="M12542 9000c-210,163 -888,301 -1691,301 -520,0 -986,-57 -1308,-142 -30,26 -46,54 -46,83 0,205 788,397 1760,397 972,0 1760,-192 1760,-397 0,-98 -181,-182 -475,-242z"/>
    <path class="fil19" d="M22999 9105c0,-248 55,-432 164,-551 109,-119 257,-180 443,-180 193,0 344,60 454,179 109,118 163,302 163,552 0,247 -54,431 -163,550 -110,120 -258,180 -445,180 -193,0 -343,-60 -452,-179 -109,-118 -164,-302 -164,-551zm414 0c0,178 21,298 63,360 32,45 75,68 131,68 57,0 101,-23 133,-68 41,-62 61,-182 61,-360 0,-179 -20,-299 -61,-359 -32,-46 -76,-69 -133,-69 -56,0 -99,22 -131,67 -42,62 -63,182 -63,361zm599 2201l-393 0 1476 -2932 385 0 -1468 2932zm858 -731c0,-248 55,-432 164,-552 109,-121 258,-181 447,-181 190,0 340,60 449,181 109,120 164,304 164,552 0,250 -55,435 -164,555 -109,120 -257,180 -444,180 -193,0 -343,-60 -452,-180 -109,-120 -164,-305 -164,-555zm414 1c0,181 21,302 63,362 31,47 75,70 131,70 57,0 100,-22 131,-68 42,-62 62,-183 62,-364 0,-180 -20,-302 -60,-363 -32,-46 -76,-68 -133,-68 -57,0 -101,22 -131,68 -42,61 -63,183 -63,363z"/>
    <path class="fil20" d="M16023 5827l3601 0 0 -120 -3601 0 0 120z"/>
    <path class="fil21" d="M16268 4926l-10 -120c1254,-108 2328,-942 2745,-2129l144 -411 114 40 -144 410c-433,1233 -1547,2098 -2849,2210z"/>
    <path class="fil21" d="M16323 5527l420 0 0 -361 -420 0 0 361z"/>
    <path class="fil22" d="M16983 5527l420 0 0 -541 -420 0 0 541z"/>
    <path class="fil23" d="M17643 5527l420 0 0 -841 -420 0 0 841z"/>
    <path class="fil24" d="M18304 5527l420 0 0 -1261 -420 0 0 1261z"/>
    <path class="fil25" d="M18964 5527l420 0 0 -2101 -420 0 0 2101z"/>
    <path class="fil21" d="M19444 2826c-23,0 -44,-13 -54,-33l-213 -426 -426 213c-30,15 -66,3 -81,-27 -15,-30 -3,-66 27,-81l480 -240c9,-4 18,-6 27,-6 22,0 43,12 54,33l0 0 240 480c14,30 2,66 -28,81 -8,4 -17,6 -26,6z"/>
    <path class="fil26" d="M17031 2278c-525,0 -950,426 -950,950 0,525 425,951 950,951 525,0 950,-426 950,-951 0,-524 -425,-950 -950,-950zm259 1317c-47,53 -114,84 -202,93l0 134 -113 0 0 -133c-147,-15 -238,-101 -273,-257l174 -45c16,98 69,147 160,147 42,0 73,-11 93,-32 20,-21 30,-46 30,-76 0,-31 -10,-54 -30,-70 -20,-15 -64,-36 -133,-60 -62,-21 -110,-42 -145,-64 -35,-20 -63,-50 -85,-88 -21,-37 -32,-81 -32,-131 0,-66 19,-126 58,-178 39,-53 100,-85 183,-97l0 -103 113 0 0 103c125,16 207,87 244,214l-155 63c-30,-87 -77,-130 -140,-130 -32,0 -58,9 -77,29 -19,19 -29,43 -29,71 0,28 10,50 28,65 19,15 58,34 119,56 67,24 119,47 157,69 38,22 69,52 91,90 23,38 34,83 34,134 0,79 -23,144 -70,196z"/>
   </g>
  </g>
 </g>
</svg>
